<?xml version="1.0" encoding="utf-8"?>
<!-- Generator: Adobe Illustrator 21.0.2, SVG Export Plug-In . SVG Version: 6.00 Build 0)  -->
<svg version="1.1" id="Layer_1" xmlns="http://www.w3.org/2000/svg" xmlns:xlink="http://www.w3.org/1999/xlink" x="0px" y="0px"
	 viewBox="0 0 193 47" style="enable-background:new 0 0 193 47;" xml:space="preserve">
<g>
	<path d="M17.4,8.3L15,9.7c-0.4-0.8-0.9-1.3-1.3-1.5c-0.4-0.3-1-0.4-1.6-0.4c-0.8,0-1.5,0.2-2,0.7s-0.8,1-0.8,1.7
		c0,1,0.7,1.7,2.1,2.3l2,0.8c1.6,0.6,2.8,1.4,3.5,2.4s1.1,2.1,1.1,3.4c0,1.8-0.6,3.3-1.8,4.5s-2.7,1.8-4.5,1.8
		c-1.7,0-3.1-0.5-4.2-1.5s-1.8-2.4-2-4.3l3-0.7c0.1,1.2,0.4,1.9,0.7,2.4c0.6,0.8,1.5,1.3,2.7,1.3c0.9,0,1.7-0.3,2.3-0.9
		s0.9-1.4,0.9-2.3c0-0.4-0.1-0.7-0.2-1s-0.3-0.6-0.5-0.9s-0.5-0.5-0.9-0.7s-0.8-0.5-1.3-0.7l-1.9-0.8c-2.7-1.1-4-2.8-4-5
		c0-1.5,0.6-2.7,1.7-3.7s2.5-1.5,4.2-1.5C14.4,5,16.2,6.1,17.4,8.3z"/>
	<path d="M24.5,17v8h-3V5.3h3.4c1.6,0,2.9,0.1,3.7,0.3c0.8,0.2,1.6,0.7,2.2,1.3c1.1,1.1,1.7,2.5,1.7,4.2c0,1.8-0.6,3.2-1.8,4.3
		S27.9,17,25.8,17H24.5z M24.5,14.2h1.1c2.7,0,4.1-1,4.1-3.1c0-2-1.4-3-4.2-3h-1V14.2z"/>
	<path d="M42.2,16.6l6.1,8.4h-3.6l-5.6-8h-0.5v8h-3V5.3H39c2.6,0,4.5,0.5,5.6,1.5c1.3,1.1,1.9,2.5,1.9,4.3c0,1.4-0.4,2.6-1.2,3.6
		S43.5,16.3,42.2,16.6z M38.5,14.3h0.9c2.8,0,4.2-1.1,4.2-3.2c0-2-1.4-3-4.1-3h-1.1L38.5,14.3L38.5,14.3z"/>
	<path d="M54.2,5.3v19.6h-3V5.3H54.2z"/>
	<path d="M58.9,24.9V4l14.3,15V5.3h3v20.8L61.8,11.2v13.7H58.9z"/>
	<path d="M91.1,14.7h8.1v0.6c0,1.5-0.2,2.8-0.5,3.9c-0.3,1-0.9,2-1.7,2.9c-1.8,2-4.1,3.1-6.9,3.1c-2.7,0-5.1-1-7-3
		c-2-2-2.9-4.4-2.9-7.2s1-5.3,3-7.2c2-2,4.4-3,7.3-3c1.5,0,3,0.3,4.3,0.9s2.5,1.6,3.7,3l-2.1,2c-1.6-2.1-3.6-3.2-5.9-3.2
		c-2.1,0-3.8,0.7-5.2,2.1c-1.4,1.4-2.1,3.2-2.1,5.3c0,2.2,0.8,4,2.3,5.4c1.5,1.3,3.1,2,4.8,2c1.5,0,2.8-0.5,3.9-1.5
		c1.2-1,1.8-2.2,1.9-3.6h-4.9v-2.5H91.1z"/>
	<path d="M113.9,13h8.5V5.3h3v19.6h-3v-9.2h-8.5v9.2h-3V5.3h3V13z"/>
	<path d="M129,15.1c0-2.8,1-5.1,3-7.1s4.4-3,7.3-3c2.8,0,5.2,1,7.2,3s3,4.4,3,7.2s-1,5.2-3,7.2s-4.5,3-7.3,3c-2.5,0-4.8-0.9-6.8-2.6
		C130.1,20.7,129,18.2,129,15.1z M132,15.1c0,2.2,0.7,3.9,2.2,5.3c1.4,1.4,3.1,2.1,5,2.1c2.1,0,3.8-0.7,5.2-2.1s2.1-3.2,2.1-5.3
		s-0.7-3.8-2.1-5.3c-1.4-1.4-3.1-2.1-5.2-2.1c-2,0-3.8,0.7-5.2,2.1C132.7,11.3,132,13,132,15.1z"/>
	<path d="M158,8.1v16.8h-3V8.1h-4.5V5.3h12v2.8H158z"/>
	<path d="M175.9,8.1H168v4.7h7.6v2.8H168v6.6h7.9V25h-10.8V5.3h10.8V8.1z"/>
	<path d="M182.8,5.3v16.8h5.8v2.8h-8.7V5.3H182.8z"/>
</g>
<g>
	<path d="M43.8,33.6h-3.2v2.2h3v1.3h-3v4.3h-1.4v-9h4.5v1.2H43.8z"/>
	<path d="M52.8,33.6h-3.6v2.2h3.5v1.3h-3.5v3h3.6v1.3h-5v-9h5V33.6z"/>
	<path d="M62.1,33.6h-3.6v2.2H62v1.3h-3.5v3h3.6v1.3h-5v-9h5V33.6z"/>
	<path d="M67.7,32.3v7.8h2.7v1.3h-4v-9L67.7,32.3L67.7,32.3z"/>
	<path d="M80.7,32.3l2.4,6l2.5-6.5l2.4,6.5l2.5-6H92l-4,9.6l-2.3-6.4L83.1,42l-3.8-9.6h1.4V32.3z"/>
	<path d="M100.5,33.6h-3.6v2.2h3.5v1.3h-3.5v3h3.6v1.3h-5v-9h5V33.6z"/>
	<path d="M106.1,32.3v7.8h2.7v1.3h-4v-9L106.1,32.3L106.1,32.3z"/>
	<path d="M118.8,32.8v1.6c-0.8-0.7-1.6-1-2.4-1c-0.9,0-1.7,0.3-2.3,1c-0.6,0.7-1,1.5-1,2.4s0.3,1.8,1,2.4s1.4,1,2.4,1
		c0.5,0,0.9-0.1,1.2-0.2c0.2-0.1,0.4-0.2,0.6-0.3s0.4-0.3,0.6-0.5v1.6c-0.8,0.4-1.6,0.7-2.5,0.7c-1.3,0-2.4-0.5-3.3-1.4
		s-1.4-2-1.4-3.3c0-1.2,0.4-2.2,1.1-3.1c0.9-1.1,2.2-1.7,3.6-1.7C117.2,32.2,118,32.4,118.8,32.8z"/>
	<path d="M122.5,36.8c0-1.3,0.5-2.4,1.4-3.3c0.9-0.9,2-1.4,3.4-1.4c1.3,0,2.4,0.5,3.3,1.4c0.9,0.9,1.4,2,1.4,3.3s-0.5,2.4-1.4,3.3
		c-0.9,0.9-2.1,1.4-3.4,1.4c-1.2,0-2.2-0.4-3.1-1.2C123,39.5,122.5,38.3,122.5,36.8z M123.8,36.8c0,1,0.3,1.8,1,2.5
		c0.7,0.6,1.4,1,2.3,1c0.9,0,1.8-0.3,2.4-1c0.7-0.7,1-1.5,1-2.4c0-1-0.3-1.8-1-2.4c-0.6-0.7-1.4-1-2.4-1c-0.9,0-1.7,0.3-2.4,1
		C124.2,35.1,123.8,35.9,123.8,36.8z"/>
	<path d="M135.8,41.4l1.9-9.7l3.1,7l3.2-7l1.7,9.7h-1.4l-0.9-5.5l-2.7,5.9l-2.6-5.9l-1,5.5H135.8z"/>
	<path d="M155.1,33.6h-3.6v2.2h3.5v1.3h-3.5v3h3.6v1.3h-5v-9h5V33.6z"/>
</g>
</svg>
